<svg width="1923" height="834" viewBox="0 0 1923 834" fill="none" xmlns="http://www.w3.org/2000/svg">
<g filter="url(#filter0_b_342_3293)">
<path d="M777.904 697.664C563.734 756.596 449.786 923.277 2 772.574V0H1922V490.684C1768.92 660.708 1728.4 612.266 1574.32 591.291C1420.24 570.316 1349.2 687.676 1230.64 736.117C1112.08 784.559 933.985 654.715 777.904 697.664Z" fill="url(#paint0_linear_342_3293)"/>
</g>
<path d="M1.99999 562.796C48.0297 528.693 168.917 463.44 284.226 475.249C399.535 487.058 343.145 583.643 543.269 562.796C716.256 544.775 640.536 642.198 753.427 644.234C894.54 646.779 920.242 562.796 1052.79 562.796C1185.33 562.796 1157.11 608.605 1320.9 606.06C1484.69 603.515 1518.1 475.249 1652.01 475.249C1801.13 475.249 1820.53 600.97 1922 562.796" stroke="#FEC356" stroke-width="4"/>
<ellipse cx="1730.7" cy="491.701" rx="16.4828" ry="16.8411" fill="url(#paint1_linear_342_3293)"/>
<ellipse cx="1497.94" cy="542.734" rx="16.4828" ry="16.8411" fill="url(#paint2_linear_342_3293)"/>
<defs>
<filter id="filter0_b_342_3293" x="-2" y="-4" width="1928" height="842" filterUnits="userSpaceOnUse" color-interpolation-filters="sRGB">
<feFlood flood-opacity="0" result="BackgroundImageFix"/>
<feGaussianBlur in="BackgroundImage" stdDeviation="2"/>
<feComposite in2="SourceAlpha" operator="in" result="effect1_backgroundBlur_342_3293"/>
<feBlend mode="normal" in="SourceGraphic" in2="effect1_backgroundBlur_342_3293" result="shape"/>
</filter>
<linearGradient id="paint0_linear_342_3293" x1="962" y1="0" x2="962" y2="856.124" gradientUnits="userSpaceOnUse">
<stop stop-color="#F85308"/>
<stop offset="1" stop-color="#FFD964"/>
</linearGradient>
<linearGradient id="paint1_linear_342_3293" x1="1730.7" y1="474.86" x2="1730.7" y2="508.542" gradientUnits="userSpaceOnUse">
<stop offset="0.263393" stop-color="#FA6714"/>
<stop offset="0.825893" stop-color="#FEC355"/>
</linearGradient>
<linearGradient id="paint2_linear_342_3293" x1="1497.94" y1="525.893" x2="1497.94" y2="559.575" gradientUnits="userSpaceOnUse">
<stop offset="0.263393" stop-color="#FA6714"/>
<stop offset="0.825893" stop-color="#FEC355"/>
</linearGradient>
</defs>
</svg>
