<svg width="128" height="128" viewBox="0 0 128 128" fill="none" xmlns="http://www.w3.org/2000/svg">
<circle cx="64" cy="64" r="64" fill="#E9E9E9"/>
<path d="M85.3686 42.6721C83.0772 40.4162 80.3458 38.6238 77.333 37.3988C74.3202 36.1738 71.0861 35.5407 67.8186 35.5363H67.7342C64.4784 35.5241 61.2525 36.139 58.2444 37.3453C55.2363 38.5517 52.506 40.3254 50.2123 42.5631L40.7342 51.8505L31.6217 60.7838C30.7907 61.6078 30.3278 62.7153 30.3331 63.867C30.3383 65.0187 30.8113 66.1222 31.6498 66.9391L39.6936 74.7285C40.1069 75.1383 40.6014 75.4629 41.1476 75.6829C41.6938 75.9029 42.2802 76.0137 42.8717 76.0085H42.8998C43.4976 76.0107 44.0896 75.896 44.6405 75.6713C45.1915 75.4467 45.6899 75.1168 46.1061 74.7012L55.1061 65.7679L64.5561 56.4261C65.3934 55.6267 66.5189 55.174 67.6947 55.1639C68.8704 55.1537 70.0042 55.5868 70.8561 56.3716C71.2746 56.7696 71.607 57.2443 71.834 57.768C72.0609 58.2917 72.1779 58.854 72.178 59.422C72.1823 60.6449 71.6869 61.8199 70.7998 62.6903L61.2092 71.6781L51.9842 80.3663C51.5519 80.7662 51.2068 81.246 50.9693 81.7773C50.7318 82.3086 50.6067 82.8807 50.6014 83.4596C50.5962 84.0386 50.7109 84.6126 50.9387 85.1479C51.1666 85.6832 51.5029 86.1688 51.9279 86.576L59.9717 94.3926C60.8221 95.1919 61.9591 95.6411 63.1442 95.6462C64.3292 95.6513 65.4703 95.2118 66.328 94.4199L75.5811 85.5955L85.0311 76.635C94.7061 67.2659 94.8748 52.0411 85.3686 42.6721ZM42.8717 71.6508L34.8279 63.8614L42.3373 56.4806L50.3529 64.2427L42.8717 71.6508ZM63.178 91.2878L55.1061 83.4984L62.7842 76.2809L70.7998 84.0431L63.178 91.2878Z" fill="#56BADF"/>
</svg>
