<svg width="136" height="132" viewBox="0 0 136 132" fill="none" xmlns="http://www.w3.org/2000/svg">
<g filter="url(#filter0_d_798_6662)">
<ellipse cx="68" cy="61.9763" rx="64" ry="61.9763" fill="white"/>
</g>
<path d="M62.375 94.1412C61.9862 94.1411 61.6041 94.0435 61.2658 93.8579L42.1407 83.3668C41.7945 83.1767 41.5064 82.9012 41.306 82.5681C41.1056 82.2351 41 81.8566 41 81.4711V59.6826C41 59.2972 41.1056 58.9186 41.306 58.5856C41.5064 58.2526 41.7945 57.977 42.1407 57.787L61.2658 47.2958C61.6041 47.1104 61.9862 47.0129 62.375 47.0129C62.7638 47.0129 63.1459 47.1104 63.4843 47.2958L82.6092 57.787C82.9555 57.977 83.2436 58.2526 83.444 58.5856C83.6444 58.9186 83.75 59.2972 83.75 59.6826V81.4711C83.75 81.8566 83.6444 82.2351 83.444 82.5681C83.2436 82.9012 82.9555 83.1767 82.6092 83.3668L63.4843 93.8579C63.1459 94.0435 62.7638 94.1411 62.375 94.1412ZM45.5 80.2009L62.375 89.4567L79.25 80.2009V60.9529L62.375 51.6971L45.5 60.9507V80.2009Z" fill="#F2A3EE"/>
<path d="M94.9999 64.0404H90.4999V43.5221L73.6249 34.2663L55.6091 44.1474L53.3906 40.3562L72.5156 29.865C72.854 29.6796 73.2361 29.5822 73.6249 29.5822C74.0136 29.5822 74.3958 29.6796 74.7341 29.865L93.8591 40.3562C94.2054 40.5462 94.4935 40.8218 94.6939 41.1548C94.8943 41.4878 94.9999 41.8664 94.9999 42.2518V64.0404Z" fill="#F2A3EE"/>
<defs>
<filter id="filter0_d_798_6662" x="0" y="0" width="136" height="131.953" filterUnits="userSpaceOnUse" color-interpolation-filters="sRGB">
<feFlood flood-opacity="0" result="BackgroundImageFix"/>
<feColorMatrix in="SourceAlpha" type="matrix" values="0 0 0 0 0 0 0 0 0 0 0 0 0 0 0 0 0 0 127 0" result="hardAlpha"/>
<feOffset dy="4"/>
<feGaussianBlur stdDeviation="2"/>
<feComposite in2="hardAlpha" operator="out"/>
<feColorMatrix type="matrix" values="0 0 0 0 0 0 0 0 0 0 0 0 0 0 0 0 0 0 0.25 0"/>
<feBlend mode="normal" in2="BackgroundImageFix" result="effect1_dropShadow_798_6662"/>
<feBlend mode="normal" in="SourceGraphic" in2="effect1_dropShadow_798_6662" result="shape"/>
</filter>
</defs>
</svg>
