<svg width="128" height="128" viewBox="0 0 128 128" fill="none" xmlns="http://www.w3.org/2000/svg">
<circle cx="64" cy="64" r="64" fill="#E9E9E9"/>
<path d="M58.0997 61.8574C60.6797 52.5319 62.7197 46.4311 67.2197 46.4311C71.7197 46.4311 73.7597 52.5319 76.3397 61.8574C79.2197 72.345 82.5197 84.1979 94.2197 84.1979V78.3876C87.6197 78.3876 85.2197 71.241 82.1297 60.3758C79.4597 50.6726 76.6697 40.6208 67.2197 40.6208C57.7697 40.6208 54.9797 50.6726 52.3097 60.3758C49.3097 71.241 46.8197 78.3876 40.2197 78.3876V34.8105H34.2197V92.9133H94.2197V87.1031H40.2197V84.1979C51.9197 84.1979 55.2197 72.345 58.0997 61.8574Z" fill="#9066F5"/>
</svg>
