<svg width="136" height="136" viewBox="0 0 136 136" fill="none" xmlns="http://www.w3.org/2000/svg">
<g filter="url(#filter0_d_798_6669)">
<circle cx="68" cy="64" r="64" fill="white"/>
</g>
<path d="M78.207 42.5557C78.1041 42.3774 77.9635 42.2221 77.7945 42.1C77.6254 41.9779 77.4316 41.8917 77.2258 41.847C77.02 41.8023 76.8067 41.8002 76.6 41.8407C76.3933 41.8812 76.1977 41.9635 76.026 42.0822L74.868 42.8811C74.2204 43.3288 73.4156 43.5089 72.6308 43.382C71.8459 43.2551 71.1453 42.8314 70.683 42.2042C70.2207 41.577 70.0347 40.7977 70.1658 40.0377C70.2969 39.2777 70.7344 38.5992 71.382 38.1515L72.537 37.3526C73.3956 36.7588 74.3739 36.3471 75.4081 36.1444C76.4422 35.9417 77.5088 35.9525 78.5383 36.1763C79.5678 36.4 80.537 36.8316 81.3825 37.4428C82.228 38.054 82.9308 38.831 83.445 39.7232L84.969 42.3669L89.754 37.7361C90.0308 37.4586 90.3618 37.2373 90.7278 37.0851C91.0938 36.9328 91.4875 36.8527 91.8858 36.8493C92.2842 36.846 92.6792 36.9195 93.0479 37.0655C93.4166 37.2116 93.7515 37.4273 94.0332 37.7001C94.3149 37.9729 94.5376 38.2972 94.6885 38.6543C94.8393 39.0113 94.9152 39.3938 94.9118 39.7796C94.9083 40.1653 94.8256 40.5465 94.6683 40.901C94.5111 41.2554 94.2826 41.576 93.996 41.844L88.008 47.6426L90.387 51.7708C90.4935 51.9561 90.6406 52.1165 90.818 52.2409C90.9953 52.3652 91.1986 52.4505 91.4136 52.4906C91.6286 52.5308 91.8501 52.5249 92.0625 52.4733C92.2749 52.4217 92.473 52.3257 92.643 52.1921L93.735 51.3322C94.0411 51.0918 94.3931 50.9122 94.7709 50.8036C95.1487 50.695 95.5449 50.6595 95.9369 50.6991C96.3288 50.7388 96.7089 50.8528 97.0553 51.0347C97.4018 51.2166 97.7078 51.4628 97.956 51.7592C98.2042 52.0557 98.3897 52.3965 98.5019 52.7624C98.614 53.1282 98.6507 53.5119 98.6097 53.8914C98.5688 54.271 98.451 54.639 98.2632 54.9745C98.0754 55.31 97.8211 55.6064 97.515 55.8468L96.423 56.7038C95.5735 57.3717 94.5833 57.8514 93.522 58.1095C92.4606 58.3675 91.3539 58.3974 90.2793 58.1973C89.2047 57.9972 88.1884 57.5717 87.3016 56.9509C86.4148 56.33 85.6791 55.5288 85.146 54.6034L83.598 51.9132L78.996 56.3697C78.4302 56.8989 77.6724 57.1917 76.8858 57.1851C76.0992 57.1785 75.3468 56.8729 74.7906 56.3343C74.2343 55.7957 73.9188 55.067 73.912 54.3053C73.9052 53.5436 74.2075 52.8097 74.754 52.2618L80.559 46.6404L78.207 42.5557ZM57.063 69.2395C52.815 70.0442 48.057 70.2446 43.473 70.2853C42.654 73.51 42.993 75.7993 43.767 77.3448C44.673 79.1547 46.419 80.4359 48.891 81.0343C53.985 82.2632 61.413 80.308 66.369 74.8318C66.8938 74.2524 67.6347 73.8986 68.4288 73.8482C69.2229 73.7978 70.0052 74.055 70.6035 74.5631C71.2018 75.0713 71.5672 75.7888 71.6193 76.5578C71.6713 77.3268 71.4058 78.0843 70.881 78.6637C64.587 85.6157 54.921 88.4773 47.436 86.6703C43.617 85.7465 40.203 83.5444 38.367 79.8781C36.546 76.2379 36.531 71.6594 38.4 66.4389C40.92 59.3968 44.754 54.9897 48.618 52.2444C51.4898 50.2088 54.7853 48.804 58.275 48.1278C63.153 47.1604 67.53 48.4909 69.975 51.5994C72.459 54.7573 72.378 59.0569 69.699 62.6012C66.759 66.4883 61.959 68.3156 57.069 69.2395H57.063ZM59.478 53.8219C56.8363 54.3299 54.3411 55.3908 52.167 56.9304C50.004 58.4643 47.697 60.8029 45.777 64.4373C49.398 64.3501 52.857 64.1177 55.917 63.5367C60.282 62.7116 63.252 61.2881 64.857 59.1702C66.147 57.4562 65.892 56.0036 65.199 55.1205C64.464 54.1908 62.655 53.1915 59.478 53.8219Z" fill="#ED7470"/>
<defs>
<filter id="filter0_d_798_6669" x="0" y="0" width="136" height="136" filterUnits="userSpaceOnUse" color-interpolation-filters="sRGB">
<feFlood flood-opacity="0" result="BackgroundImageFix"/>
<feColorMatrix in="SourceAlpha" type="matrix" values="0 0 0 0 0 0 0 0 0 0 0 0 0 0 0 0 0 0 127 0" result="hardAlpha"/>
<feOffset dy="4"/>
<feGaussianBlur stdDeviation="2"/>
<feComposite in2="hardAlpha" operator="out"/>
<feColorMatrix type="matrix" values="0 0 0 0 0 0 0 0 0 0 0 0 0 0 0 0 0 0 0.25 0"/>
<feBlend mode="normal" in2="BackgroundImageFix" result="effect1_dropShadow_798_6669"/>
<feBlend mode="normal" in="SourceGraphic" in2="effect1_dropShadow_798_6669" result="shape"/>
</filter>
</defs>
</svg>
