<svg width="128" height="128" viewBox="0 0 128 128" fill="none" xmlns="http://www.w3.org/2000/svg">
<circle cx="64" cy="64" r="64" fill="#E9E9E9"/>
<g clip-path="url(#clip0_241_3252)">
<path d="M47.4644 81.6086C46.5458 81.6099 45.6588 81.2839 44.9723 80.6927L25.9814 64.3449L46.027 47.0884C46.7742 46.4694 47.7423 46.1591 48.7233 46.2242C49.7043 46.2893 50.6197 46.7246 51.2727 47.4365C51.9257 48.1483 52.2642 49.08 52.2152 50.031C52.1663 50.982 51.734 51.8764 51.0112 52.5219L37.2784 64.3449L49.9565 75.2555C50.5261 75.7449 50.9285 76.3905 51.1102 77.1066C51.292 77.8227 51.2445 78.5754 50.9741 79.2647C50.7037 79.9541 50.2232 80.5475 49.5963 80.9661C48.9694 81.3847 48.2259 81.6088 47.4644 81.6086ZM81.0363 81.6013L101.082 64.3449L82.0909 47.997C81.3469 47.357 80.3707 47.0294 79.3772 47.0863C78.3838 47.1432 77.4543 47.58 76.7934 48.3005C76.1324 49.021 75.7941 49.9663 75.8529 50.9284C75.9117 51.8904 76.3627 52.7905 77.1068 53.4305L89.7849 64.3449L76.0521 76.1641C75.3076 76.8042 74.8561 77.7044 74.7969 78.6669C74.7378 79.6293 75.0759 80.575 75.7369 81.296C76.3978 82.017 77.3274 82.4543 78.3213 82.5115C79.3151 82.5688 80.2917 82.2414 81.0363 81.6013ZM63.4791 86.7514L70.9854 43.1377C71.0814 42.6611 71.0777 42.1706 70.9747 41.6954C70.8717 41.2201 70.6713 40.7696 70.3855 40.3706C70.0997 39.9716 69.7342 39.6321 69.3106 39.3721C68.887 39.1122 68.4139 38.9371 67.9193 38.8572C67.4246 38.7773 66.9184 38.7941 66.4306 38.9068C65.9428 39.0195 65.4833 39.2258 65.0792 39.5133C64.6751 39.8009 64.3346 40.164 64.0778 40.5811C63.821 40.9982 63.6532 41.461 63.5842 41.942L56.0779 85.5556C55.9819 86.0323 55.9855 86.5227 56.0886 86.998C56.1916 87.4732 56.392 87.9237 56.6778 88.3227C56.9636 88.7218 57.3291 89.0613 57.7527 89.3212C58.1763 89.5812 58.6494 89.7563 59.144 89.8362C59.6387 89.9161 60.1449 89.8992 60.6326 89.7865C61.1204 89.6738 61.58 89.4676 61.9841 89.18C62.3882 88.8925 62.7287 88.5294 62.9855 88.1122C63.2422 87.6951 63.4101 87.2324 63.4791 86.7514Z" fill="#679EF8"/>
</g>
<defs>
<clipPath id="clip0_241_3252">
<rect width="75.0629" height="72.6894" fill="white" transform="translate(26 28)"/>
</clipPath>
</defs>
</svg>
