<svg width="128" height="124" viewBox="0 0 128 124" fill="none" xmlns="http://www.w3.org/2000/svg">
<ellipse cx="64" cy="61.9763" rx="64" ry="61.9763" fill="#E9E9E9"/>
<path d="M58.375 94.141C57.9862 94.1408 57.6041 94.0432 57.2657 93.8577L38.1407 83.3665C37.7945 83.1765 37.5064 82.9009 37.306 82.5679C37.1056 82.2349 37 81.8563 37 81.4709V59.6824C37 59.2969 37.1056 58.9184 37.306 58.5854C37.5064 58.2523 37.7945 57.9768 38.1407 57.7867L57.2657 47.2956C57.6041 47.1101 57.9862 47.0127 58.375 47.0127C58.7638 47.0127 59.1459 47.1101 59.4843 47.2956L78.6092 57.7867C78.9555 57.9768 79.2436 58.2523 79.444 58.5854C79.6444 58.9184 79.75 59.2969 79.75 59.6824V81.4709C79.75 81.8563 79.6444 82.2349 79.444 82.5679C79.2436 82.9009 78.9555 83.1765 78.6092 83.3665L59.4843 93.8577C59.1459 94.0432 58.7638 94.1408 58.375 94.141ZM41.5 80.2006L58.375 89.4564L75.25 80.2006V60.9526L58.375 51.6968L41.5 60.9504V80.2006Z" fill="#F2A3EE"/>
<path d="M90.9999 64.0402H86.4999V43.522L69.6249 34.2662L51.6091 44.1473L49.3906 40.3561L68.5156 29.8649C68.854 29.6795 69.2361 29.582 69.6249 29.582C70.0136 29.582 70.3958 29.6795 70.7341 29.8649L89.8591 40.3561C90.2054 40.5461 90.4935 40.8217 90.6939 41.1547C90.8943 41.4877 90.9999 41.8662 90.9999 42.2517V64.0402Z" fill="#F2A3EE"/>
</svg>
