<svg width="128" height="128" viewBox="0 0 128 128" fill="none" xmlns="http://www.w3.org/2000/svg">
<circle cx="64" cy="64" r="64" fill="white"/>
<path d="M68.5835 85.9571L51.1865 75.9202L52.91 72.9409L70.3036 82.9778L68.5835 85.9571Z" fill="#0F00B8"/>
<path d="M86.3349 91.6718C91.3591 86.9315 94.5429 80.2717 94.5429 72.8387C94.5429 63.6806 89.7279 55.4204 82.241 50.7812L90.629 36.2771L89.3116 35.5185L91.3805 31.9245L85.9569 28.7969L83.8835 32.3853L82.4964 31.5851L61.8751 67.269L63.6763 68.3074L61.1191 72.7263L65.6506 75.3403L68.2089 70.9192L70.0078 71.9576L78.6793 56.9556C81.3527 58.6577 83.5538 61.0052 85.0794 63.7813C86.6049 66.5575 87.4058 69.6728 87.4081 72.8398C87.4081 83.224 78.9459 91.6729 68.5497 91.6729H53.3555V98.8036H96.1257V91.6729H86.3371L86.3349 91.6718ZM48.3684 36.839V31.1783H49.0659L49.0557 29.8207H42.7006L42.7108 31.1783H43.46V36.839H38.7181V31.1783H39.4134L39.4055 29.8207H33.0448L33.0571 31.1783H33.8064V36.839H26.8438V65.1944H55.2714V36.839H48.3706H48.3684ZM52.8639 62.7939H29.2479V39.2395H33.8053V57.3557C33.8053 58.7267 34.9269 59.8404 36.2802 59.8404C37.6359 59.8348 38.717 58.7245 38.717 57.3557V39.2395H43.4589V57.3557C43.4589 58.7267 44.5816 59.8404 45.935 59.8404C47.2906 59.8348 48.3718 58.7245 48.3695 57.3557V39.2395H52.8639V62.7939V62.7939Z" fill="#0F00B8"/>
</svg>
