<svg width="128" height="128" viewBox="0 0 128 128" fill="none" xmlns="http://www.w3.org/2000/svg">
<circle cx="64" cy="64" r="64" fill="#E9E9E9"/>
<path d="M32.5 90.0078H50.5V94.3655H32.5V90.0078Z" fill="#62CEA4"/>
<path d="M66.25 92.1864C65.913 92.1862 65.5803 92.1127 65.2765 91.9712C64.9727 91.8298 64.7057 91.6241 64.495 91.3693L56.17 81.2921H32.5V76.9344H57.25C57.587 76.9346 57.9197 77.0081 58.2235 77.1496C58.5273 77.291 58.7943 77.4967 59.005 77.7515L66.0858 86.3187L77.878 69.1886C78.0777 68.8987 78.3462 68.6594 78.6611 68.4908C78.976 68.3222 79.3281 68.2292 79.6878 68.2196C80.0475 68.21 80.4043 68.284 80.7284 68.4356C81.0524 68.5871 81.3341 68.8117 81.55 69.0905L87.625 76.9344H95.5V81.2921H86.5C86.1507 81.2921 85.8062 81.2134 85.4938 81.0621C85.1814 80.9108 84.9096 80.6912 84.7 80.4206L79.858 74.1673L68.122 91.2168C67.9257 91.502 67.6625 91.7383 67.354 91.9064C67.0456 92.0745 66.7004 92.1697 66.3468 92.1842L66.25 92.1864Z" fill="#62CEA4"/>
<path d="M52.75 63.8619V52.9676H55C57.386 52.9647 59.6735 52.0456 61.3607 50.4117C63.0479 48.7779 63.997 46.5628 64 44.2522V37.7156H57.25C54.946 37.7193 52.7321 38.5832 51.0692 40.1276C49.9041 38.079 48.1931 36.3704 46.1143 35.1797C44.0356 33.9891 41.6651 33.36 39.25 33.3579H32.5V39.8945C32.5042 43.3604 33.9278 46.6833 36.4587 49.1341C38.9895 51.5849 42.4209 52.9636 46 52.9676H48.25V63.8619H32.5V68.2196H64V63.8619H52.75ZM57.25 42.0733H59.5V44.2522C59.4988 45.4076 59.0243 46.5153 58.1807 47.3323C57.337 48.1493 56.1931 48.6087 55 48.6099H52.75V46.431C52.7512 45.2757 53.2257 44.1679 54.0693 43.3509C54.913 42.534 56.0569 42.0745 57.25 42.0733ZM46 48.6099C43.614 48.607 41.3265 47.6879 39.6393 46.054C37.9521 44.4202 37.003 42.2051 37 39.8945V37.7156H39.25C41.636 37.7185 43.9235 38.6377 45.6107 40.2715C47.2979 41.9053 48.247 44.1205 48.25 46.431V48.6099H46Z" fill="#62CEA4"/>
</svg>
