<svg width="136" height="136" viewBox="0 0 136 136" fill="none" xmlns="http://www.w3.org/2000/svg">
<g filter="url(#filter0_d_798_6697)">
<circle cx="68" cy="64" r="64" fill="white"/>
</g>
<path d="M62.0997 61.8573C64.6797 52.5318 66.7197 46.431 71.2197 46.431C75.7197 46.431 77.7597 52.5318 80.3397 61.8573C83.2197 72.3448 86.5197 84.1978 98.2197 84.1978V78.3875C91.6197 78.3875 89.2197 71.2409 86.1297 60.3757C83.4597 50.6725 80.6697 40.6207 71.2197 40.6207C61.7697 40.6207 58.9797 50.6725 56.3097 60.3757C53.3097 71.2409 50.8197 78.3875 44.2197 78.3875V34.8104H38.2197V92.9132H98.2197V87.1029H44.2197V84.1978C55.9197 84.1978 59.2197 72.3448 62.0997 61.8573Z" fill="#9066F5"/>
<defs>
<filter id="filter0_d_798_6697" x="0" y="0" width="136" height="136" filterUnits="userSpaceOnUse" color-interpolation-filters="sRGB">
<feFlood flood-opacity="0" result="BackgroundImageFix"/>
<feColorMatrix in="SourceAlpha" type="matrix" values="0 0 0 0 0 0 0 0 0 0 0 0 0 0 0 0 0 0 127 0" result="hardAlpha"/>
<feOffset dy="4"/>
<feGaussianBlur stdDeviation="2"/>
<feComposite in2="hardAlpha" operator="out"/>
<feColorMatrix type="matrix" values="0 0 0 0 0 0 0 0 0 0 0 0 0 0 0 0 0 0 0.25 0"/>
<feBlend mode="normal" in2="BackgroundImageFix" result="effect1_dropShadow_798_6697"/>
<feBlend mode="normal" in="SourceGraphic" in2="effect1_dropShadow_798_6697" result="shape"/>
</filter>
</defs>
</svg>
