<svg width="136" height="136" viewBox="0 0 136 136" fill="none" xmlns="http://www.w3.org/2000/svg">
<g filter="url(#filter0_d_798_6691)">
<circle cx="68" cy="64" r="64" fill="white"/>
</g>
<path d="M89.3681 42.6722C87.0767 40.4164 84.3453 38.6239 81.3325 37.3989C78.3197 36.1739 75.0857 35.5409 71.8181 35.5364H71.7337C68.4779 35.5242 65.252 36.1391 62.2439 37.3455C59.2358 38.5518 56.5055 40.3255 54.2118 42.5632L44.7337 51.8506L35.6212 60.7839C34.7902 61.6079 34.3273 62.7154 34.3326 63.8671C34.3378 65.0189 34.8108 66.1224 35.6493 66.9392L43.6931 74.7286C44.1064 75.1384 44.6009 75.4631 45.1471 75.683C45.6933 75.903 46.2797 76.0138 46.8712 76.0087H46.8993C47.4971 76.0108 48.0891 75.8961 48.6401 75.6715C49.191 75.4468 49.6894 75.1169 50.1056 74.7014L59.1056 65.768L68.5556 56.4262C69.3929 55.6268 70.5185 55.1742 71.6942 55.164C72.87 55.1538 74.0037 55.587 74.8556 56.3717C75.2741 56.7697 75.6065 57.2444 75.8335 57.7681C76.0604 58.2919 76.1774 58.8541 76.1775 59.4221C76.1818 60.6451 75.6864 61.82 74.7993 62.6904L65.2087 71.6782L55.9837 80.3664C55.5514 80.7663 55.2063 81.2461 54.9688 81.7774C54.7313 82.3087 54.6062 82.8808 54.6009 83.4597C54.5957 84.0387 54.7104 84.6128 54.9382 85.148C55.1661 85.6833 55.5025 86.1689 55.9275 86.5761L63.9712 94.3928C64.8216 95.192 65.9586 95.6413 67.1437 95.6463C68.3287 95.6514 69.4698 95.2119 70.3275 94.42L79.5806 85.5956L89.0306 76.6351C98.7056 67.266 98.8743 52.0413 89.3681 42.6722ZM46.8712 71.651L38.8275 63.8615L46.3368 56.4807L54.3525 64.2428L46.8712 71.651ZM67.1775 91.2879L59.1056 83.4985L66.7837 76.281L74.7993 84.0432L67.1775 91.2879Z" fill="#56BADF"/>
<defs>
<filter id="filter0_d_798_6691" x="0" y="0" width="136" height="136" filterUnits="userSpaceOnUse" color-interpolation-filters="sRGB">
<feFlood flood-opacity="0" result="BackgroundImageFix"/>
<feColorMatrix in="SourceAlpha" type="matrix" values="0 0 0 0 0 0 0 0 0 0 0 0 0 0 0 0 0 0 127 0" result="hardAlpha"/>
<feOffset dy="4"/>
<feGaussianBlur stdDeviation="2"/>
<feComposite in2="hardAlpha" operator="out"/>
<feColorMatrix type="matrix" values="0 0 0 0 0 0 0 0 0 0 0 0 0 0 0 0 0 0 0.25 0"/>
<feBlend mode="normal" in2="BackgroundImageFix" result="effect1_dropShadow_798_6691"/>
<feBlend mode="normal" in="SourceGraphic" in2="effect1_dropShadow_798_6691" result="shape"/>
</filter>
</defs>
</svg>
