<svg width="136" height="136" viewBox="0 0 136 136" fill="none" xmlns="http://www.w3.org/2000/svg">
<g filter="url(#filter0_d_798_6683)">
<circle cx="68" cy="64" r="64" fill="white"/>
</g>
<path d="M36.5 90.0081H54.5V94.3658H36.5V90.0081Z" fill="#62CEA4"/>
<path d="M70.25 92.1865C69.913 92.1863 69.5803 92.1128 69.2765 91.9714C68.9727 91.8299 68.7057 91.6242 68.495 91.3694L60.17 81.2922H36.5V76.9345H61.25C61.587 76.9347 61.9197 77.0083 62.2235 77.1497C62.5273 77.2911 62.7943 77.4968 63.005 77.7516L70.0858 86.3189L81.878 69.1887C82.0777 68.8988 82.3462 68.6595 82.6611 68.4909C82.976 68.3223 83.3281 68.2293 83.6878 68.2197C84.0475 68.2101 84.4043 68.2842 84.7284 68.4357C85.0524 68.5873 85.3341 68.8119 85.55 69.0906L91.625 76.9345H99.5V81.2922H90.5C90.1507 81.2922 89.8062 81.2135 89.4938 81.0622C89.1814 80.9109 88.9096 80.6913 88.7 80.4207L83.858 74.1674L72.122 91.2169C71.9257 91.5021 71.6625 91.7384 71.354 91.9066C71.0456 92.0747 70.7004 92.1698 70.3468 92.1843L70.25 92.1865Z" fill="#62CEA4"/>
<path d="M56.75 63.8619V52.9677H59C61.386 52.9648 63.6735 52.0456 65.3607 50.4118C67.0479 48.778 67.997 46.5628 68 44.2522V37.7157H61.25C58.946 37.7193 56.7321 38.5833 55.0692 40.1277C53.9041 38.079 52.1931 36.3704 50.1143 35.1798C48.0356 33.9891 45.6651 33.36 43.25 33.358H36.5V39.8945C36.5042 43.3605 37.9278 46.6834 40.4587 49.1342C42.9895 51.585 46.4209 52.9636 50 52.9677H52.25V63.8619H36.5V68.2196H68V63.8619H56.75ZM61.25 42.0734H63.5V44.2522C63.4988 45.4076 63.0243 46.5154 62.1807 47.3323C61.337 48.1493 60.1931 48.6088 59 48.61H56.75V46.4311C56.7512 45.2757 57.2257 44.168 58.0693 43.351C58.913 42.534 60.0569 42.0745 61.25 42.0734ZM50 48.61C47.614 48.6071 45.3265 47.6879 43.6393 46.0541C41.9521 44.4202 41.003 42.2051 41 39.8945V37.7157H43.25C45.636 37.7186 47.9235 38.6377 49.6107 40.2716C51.2979 41.9054 52.247 44.1205 52.25 46.4311V48.61H50Z" fill="#62CEA4"/>
<defs>
<filter id="filter0_d_798_6683" x="0" y="0" width="136" height="136" filterUnits="userSpaceOnUse" color-interpolation-filters="sRGB">
<feFlood flood-opacity="0" result="BackgroundImageFix"/>
<feColorMatrix in="SourceAlpha" type="matrix" values="0 0 0 0 0 0 0 0 0 0 0 0 0 0 0 0 0 0 127 0" result="hardAlpha"/>
<feOffset dy="4"/>
<feGaussianBlur stdDeviation="2"/>
<feComposite in2="hardAlpha" operator="out"/>
<feColorMatrix type="matrix" values="0 0 0 0 0 0 0 0 0 0 0 0 0 0 0 0 0 0 0.25 0"/>
<feBlend mode="normal" in2="BackgroundImageFix" result="effect1_dropShadow_798_6683"/>
<feBlend mode="normal" in="SourceGraphic" in2="effect1_dropShadow_798_6683" result="shape"/>
</filter>
</defs>
</svg>
