<svg width="128" height="128" viewBox="0 0 128 128" fill="none" xmlns="http://www.w3.org/2000/svg">
<circle cx="64" cy="64" r="64" fill="#E9E9E9"/>
<path d="M74.2073 42.5557C74.1044 42.3774 73.9638 42.2221 73.7947 42.1C73.6256 41.9779 73.4319 41.8917 73.226 41.847C73.0202 41.8023 72.807 41.8002 72.6003 41.8407C72.3935 41.8812 72.1979 41.9635 72.0263 42.0822L70.8683 42.8811C70.2206 43.3288 69.4158 43.5089 68.631 43.382C67.8462 43.2551 67.1455 42.8314 66.6833 42.2042C66.221 41.577 66.0349 40.7977 66.166 40.0377C66.2971 39.2777 66.7346 38.5992 67.3823 38.1515L68.5373 37.3526C69.3959 36.7588 70.3742 36.3471 71.4083 36.1444C72.4424 35.9417 73.5091 35.9525 74.5386 36.1763C75.5681 36.4 76.5372 36.8316 77.3827 37.4428C78.2282 38.054 78.9311 38.831 79.4453 39.7232L80.9693 42.3669L85.7543 37.7361C86.031 37.4586 86.362 37.2373 86.7281 37.0851C87.0941 36.9328 87.4877 36.8527 87.8861 36.8493C88.2844 36.846 88.6794 36.9195 89.0481 37.0655C89.4168 37.2116 89.7518 37.4273 90.0334 37.7001C90.3151 37.9729 90.5379 38.2972 90.6887 38.6543C90.8396 39.0113 90.9155 39.3938 90.912 39.7796C90.9086 40.1653 90.8258 40.5465 90.6686 40.901C90.5113 41.2554 90.2828 41.576 89.9963 41.844L84.0083 47.6426L86.3873 51.7708C86.4938 51.9561 86.6409 52.1165 86.8182 52.2409C86.9956 52.3652 87.1989 52.4505 87.4139 52.4906C87.6289 52.5308 87.8504 52.5249 88.0627 52.4733C88.2751 52.4217 88.4733 52.3257 88.6433 52.1921L89.7353 51.3322C90.0414 51.0918 90.3934 50.9122 90.7712 50.8036C91.149 50.695 91.5451 50.6595 91.9371 50.6991C92.3291 50.7388 92.7091 50.8528 93.0556 51.0347C93.402 51.2166 93.7081 51.4628 93.9563 51.7592C94.2045 52.0557 94.3899 52.3965 94.5021 52.7624C94.6143 53.1282 94.6509 53.5119 94.61 53.8914C94.569 54.271 94.4513 54.639 94.2634 54.9745C94.0756 55.31 93.8214 55.6064 93.5153 55.8468L92.4233 56.7038C91.5737 57.3717 90.5835 57.8514 89.5222 58.1095C88.4609 58.3675 87.3541 58.3974 86.2795 58.1973C85.205 57.9972 84.1886 57.5717 83.3019 56.9509C82.4151 56.33 81.6793 55.5288 81.1463 54.6034L79.5983 51.9132L74.9963 56.3697C74.4305 56.8989 73.6727 57.1917 72.8861 57.1851C72.0995 57.1785 71.347 56.8729 70.7908 56.3343C70.2346 55.7957 69.9191 55.067 69.9122 54.3053C69.9054 53.5436 70.2078 52.8097 70.7543 52.2618L76.5593 46.6404L74.2073 42.5557ZM53.0633 69.2395C48.8153 70.0442 44.0573 70.2446 39.4733 70.2853C38.6543 73.51 38.9933 75.7993 39.7673 77.3448C40.6733 79.1547 42.4193 80.4359 44.8913 81.0343C49.9853 82.2632 57.4133 80.308 62.3693 74.8318C62.894 74.2524 63.6349 73.8986 64.429 73.8482C65.2232 73.7978 66.0054 74.055 66.6038 74.5631C67.2021 75.0713 67.5675 75.7888 67.6195 76.5578C67.6716 77.3268 67.406 78.0843 66.8813 78.6637C60.5873 85.6157 50.9213 88.4773 43.4363 86.6703C39.6173 85.7465 36.2033 83.5444 34.3673 79.8781C32.5463 76.2379 32.5313 71.6594 34.4003 66.4389C36.9203 59.3968 40.7543 54.9897 44.6183 52.2444C47.49 50.2088 50.7856 48.804 54.2753 48.1278C59.1533 47.1604 63.5303 48.4909 65.9753 51.5994C68.4593 54.7573 68.3783 59.0569 65.6993 62.6012C62.7593 66.4883 57.9593 68.3156 53.0693 69.2395H53.0633ZM55.4783 53.8219C52.8365 54.3299 50.3413 55.3908 48.1673 56.9304C46.0043 58.4643 43.6973 60.8029 41.7773 64.4373C45.3983 64.3501 48.8573 64.1177 51.9173 63.5367C56.2823 62.7116 59.2523 61.2881 60.8573 59.1702C62.1473 57.4562 61.8923 56.0036 61.1993 55.1205C60.4643 54.1908 58.6553 53.1915 55.4783 53.8219Z" fill="#ED7470"/>
</svg>
